<?xml version="1.0" encoding="UTF-8" standalone="no"?>
<!DOCTYPE svg PUBLIC "-//W3C//DTD SVG 20010904//EN"
              "http://www.w3.org/TR/2001/REC-SVG-20010904/DTD/svg10.dtd">

<svg xmlns="http://www.w3.org/2000/svg"
     width="135.486mm" height="135.486mm"
     viewBox="0 0 512 512">
  <path id="Selection"
        fill="white"
        d="M 224.00,256.00
           C 224.00,256.00 164.00,317.00 164.00,317.00
             159.37,321.63 145.04,333.20 146.47,340.00
             147.13,343.13 149.87,345.78 152.02,348.00
             155.49,351.59 167.42,364.04 171.00,365.83
             173.11,366.88 175.75,367.20 178.00,366.40
             181.94,365.00 192.45,353.55 196.00,350.00
             196.00,350.00 237.00,309.00 237.00,309.00
             237.00,309.00 249.00,297.00 249.00,297.00
             250.39,295.63 253.14,292.69 255.00,292.20
             258.08,291.39 261.06,295.09 263.00,297.00
             263.00,297.00 279.00,313.00 279.00,313.00
             279.00,313.00 320.00,354.00 320.00,354.00
             324.31,358.31 331.48,367.42 338.00,366.81
             341.84,366.46 344.40,363.54 347.00,361.00
             347.00,361.00 362.77,345.00 362.77,345.00
             371.19,334.72 357.78,325.78 351.00,319.00
             351.00,319.00 306.00,274.00 306.00,274.00
             306.00,274.00 295.01,263.00 295.01,263.00
             293.59,261.52 291.04,259.20 291.04,257.00
             291.04,254.80 293.59,252.48 295.01,251.00
             295.01,251.00 309.00,237.00 309.00,237.00
             309.00,237.00 350.00,196.00 350.00,196.00
             353.63,192.37 364.76,182.26 366.02,178.00
             367.09,174.36 365.14,171.62 362.87,169.00
             362.87,169.00 348.00,154.00 348.00,154.00
             345.59,151.62 342.42,148.20 339.00,147.47
             332.52,146.11 322.01,159.08 317.00,163.42
             317.00,163.42 282.00,198.00 282.00,198.00
             275.70,204.30 261.56,217.63 257.00,224.00
             257.00,224.00 237.00,204.99 237.00,204.99
             237.00,204.99 200.00,168.00 200.00,168.00
             200.00,168.00 186.00,154.01 186.00,154.01
             183.32,151.40 179.87,147.88 176.00,147.32
             171.79,146.71 168.84,149.38 166.00,152.04
             162.09,155.71 148.26,168.87 146.96,173.00
             145.89,175.32 146.08,177.80 146.96,180.00
             149.13,183.95 165.75,199.75 170.00,204.00
             170.00,204.00 201.00,234.00 201.00,234.00
             206.94,239.94 217.78,251.55 224.00,256.00 Z" />
</svg>
