<?xml version="1.0" encoding="UTF-8" standalone="no"?>
<!DOCTYPE svg PUBLIC "-//W3C//DTD SVG 20010904//EN"
              "http://www.w3.org/TR/2001/REC-SVG-20010904/DTD/svg10.dtd">

<svg xmlns="http://www.w3.org/2000/svg"
     width="2.90278in" height="2.90278in"
     viewBox="0 0 209 209">
  <path id="Selection"
        fill="#eee" stroke="#eee" stroke-width="1"
        d="M 84.00,25.00
           C 78.94,25.78 75.69,27.07 71.00,29.01
             69.12,29.79 66.00,31.48 64.00,31.17
             59.62,30.49 56.12,23.09 50.00,21.43
             40.85,18.95 33.76,29.20 28.00,35.00
             25.06,37.96 21.76,40.66 21.15,45.00
             19.70,55.28 30.29,58.36 31.17,64.00
             31.48,66.00 29.79,69.12 29.01,71.00
             27.07,75.69 25.78,78.94 25.00,84.00
             20.21,84.00 8.80,83.10 5.14,85.74
             3.61,86.84 2.67,88.22 2.06,90.02
             2.06,90.02 2.06,114.00 2.06,114.00
             2.01,117.40 1.64,120.98 4.31,123.57
             8.03,127.18 19.80,126.00 25.00,126.00
             25.78,131.06 27.07,134.31 29.01,139.00
             29.79,140.88 31.48,144.00 31.17,146.00
             30.49,150.38 23.09,153.88 21.43,160.00
             18.95,169.15 29.20,176.24 35.00,182.00
             37.96,184.94 40.66,188.24 45.00,188.85
             55.28,190.30 58.36,179.71 64.00,178.83
             66.00,178.52 69.12,180.21 71.00,180.99
             75.69,182.93 78.94,184.22 84.00,185.00
             84.00,189.75 83.10,201.25 85.74,204.85
             87.93,207.86 90.62,207.93 94.00,208.00
             94.00,208.00 114.00,208.00 114.00,208.00
             117.40,207.99 120.98,208.36 123.57,205.69
             127.18,201.97 126.00,190.20 126.00,185.00
             131.06,184.22 134.31,182.93 139.00,180.99
             140.88,180.21 144.00,178.52 146.00,178.83
             151.64,179.71 154.72,190.30 165.00,188.85
             169.34,188.24 172.04,184.94 175.00,182.00
             180.80,176.24 191.05,169.15 188.57,160.00
             186.91,153.88 179.51,150.38 178.83,146.00
             178.52,144.00 180.21,140.88 180.99,139.00
             182.93,134.31 184.22,131.06 185.00,126.00
             194.46,126.00 207.75,129.26 208.00,116.00
             208.00,116.00 208.00,96.00 208.00,96.00
             207.99,92.12 208.39,88.32 204.85,85.74
             201.25,83.10 189.75,84.00 185.00,84.00
             184.22,78.94 182.93,75.69 180.99,71.00
             180.21,69.12 178.52,66.00 178.83,64.00
             179.51,59.62 186.91,56.12 188.57,50.00
             191.05,40.85 180.80,33.76 175.00,28.00
             172.04,25.06 169.34,21.76 165.00,21.15
             154.72,19.70 151.64,30.29 146.00,31.17
             144.00,31.48 140.88,29.79 139.00,29.01
             134.31,27.07 131.06,25.78 126.00,25.00
             126.00,15.54 129.26,2.25 116.00,2.00
             116.00,2.00 96.00,2.00 96.00,2.00
             92.12,2.01 88.32,1.61 85.74,5.15
             83.10,8.75 84.00,20.25 84.00,25.00 Z
           M 102.00,64.29
           C 106.97,63.86 110.19,64.46 115.00,65.66
             145.63,73.33 156.02,111.64 133.83,133.83
             126.83,140.82 117.70,144.49 108.00,145.71
             103.88,146.23 101.00,145.65 97.00,144.79
             80.25,141.18 68.82,129.75 65.21,113.00
             64.47,109.56 63.86,106.55 64.17,103.00
             66.15,80.57 80.52,67.84 102.00,64.29 Z" />
</svg>
