<?xml version="1.0" encoding="UTF-8" standalone="no"?>
<!DOCTYPE svg PUBLIC "-//W3C//DTD SVG 20010904//EN"
              "http://www.w3.org/TR/2001/REC-SVG-20010904/DTD/svg10.dtd">

<svg xmlns="http://www.w3.org/2000/svg"
     width="2.9in" height="2.9in"
     viewBox="0 0 261 261">
  <path id="Selection"
        fill="white"
        d="M 30.00,158.00
           C 31.17,163.80 32.43,167.53 34.60,173.00
             35.58,175.48 37.48,179.36 36.94,182.00
             35.85,187.22 26.16,192.37 25.20,202.00
             24.14,212.50 35.24,221.32 42.00,228.00
             46.54,232.48 50.29,236.41 57.00,236.90
             62.92,237.34 66.56,235.60 71.00,231.82
             73.53,229.65 77.14,225.55 80.58,225.14
             82.75,224.88 86.91,226.77 89.00,227.60
             94.96,229.97 97.52,231.09 104.00,232.00
             104.00,238.21 102.89,252.14 106.56,256.87
             109.53,260.70 113.56,260.94 118.00,261.00
             118.00,261.00 144.00,261.00 144.00,261.00
             145.93,260.97 148.14,260.97 150.00,260.43
             157.90,258.15 158.81,249.01 158.99,242.00
             159.05,239.59 158.67,235.42 160.02,233.43
             161.33,231.49 173.05,227.60 176.00,226.45
             188.14,221.74 186.65,232.80 199.00,236.36
             209.32,239.34 215.29,232.47 222.00,226.04
             222.00,226.04 230.24,217.96 230.24,217.96
             236.93,210.21 239.77,202.03 233.36,193.00
             231.06,189.75 225.59,185.23 225.14,181.42
             224.85,178.94 227.17,174.36 228.14,172.00
             230.11,167.21 231.28,163.12 232.00,158.00
             239.57,160.15 255.31,160.10 259.43,151.96
             261.78,147.32 261.00,134.66 261.00,129.00
             261.00,122.85 262.31,111.77 257.72,107.30
             252.95,102.64 238.67,104.00 232.00,104.00
             231.08,97.50 229.97,94.98 227.60,89.00
             226.77,86.91 224.88,82.59 225.11,80.42
             225.53,76.61 231.36,72.21 234.15,68.00
             240.25,58.77 235.73,50.12 228.96,43.00
             220.99,34.63 210.13,20.61 197.00,26.56
             189.84,29.79 185.99,36.81 181.00,37.04
             178.73,37.15 174.25,35.08 172.00,34.20
             161.63,30.13 159.16,31.65 159.00,23.00
             158.89,16.67 159.47,8.25 153.67,4.01
             150.36,1.58 144.03,1.05 140.00,1.00
             132.65,0.92 112.43,-0.51 107.42,4.43
             104.34,7.45 104.05,11.96 104.00,16.00
             103.97,18.99 104.48,26.39 102.98,28.69
             101.63,30.74 99.17,31.09 97.00,31.74
             92.70,33.03 82.80,38.07 79.00,36.64
             74.45,34.93 69.16,25.93 60.00,25.22
             56.17,24.93 52.23,26.53 49.00,28.48
             40.79,33.43 24.15,49.49 25.20,60.00
             26.52,73.26 39.93,74.06 36.17,85.00
             35.14,88.00 30.57,101.75 28.69,102.98
             23.32,106.50 4.65,98.88 1.19,113.00
             0.93,114.99 1.00,117.91 1.19,120.00
             1.19,120.00 1.19,145.00 1.19,145.00
             1.54,148.65 2.30,152.99 5.23,155.49
             8.72,158.48 19.37,159.12 24.00,158.98
             26.63,158.91 27.50,158.71 30.00,158.00 Z
           M 128.00,81.29
           C 134.69,80.72 142.75,82.42 149.00,84.81
             183.27,97.96 192.49,144.66 164.00,168.68
             156.52,174.98 145.69,179.45 136.00,180.71
             129.24,181.59 124.46,180.62 118.00,178.85
             87.28,170.43 72.99,137.48 86.32,109.00
             94.14,92.30 110.64,84.15 128.00,81.29 Z" />
</svg>
