<?xml version="1.0" encoding="UTF-8" standalone="no"?>
<!DOCTYPE svg PUBLIC "-//W3C//DTD SVG 20010904//EN"
              "http://www.w3.org/TR/2001/REC-SVG-20010904/DTD/svg10.dtd">

<svg xmlns="http://www.w3.org/2000/svg"
     width="3.125in" height="3.125in"
     viewBox="0 0 225 225">
  <path id="Selection"
        fill="white"
        d="M 119.00,57.57
           C 101.93,64.27 111.14,86.08 128.00,81.43
             137.80,78.73 140.83,66.94 133.78,60.39
             129.62,56.54 124.21,56.63 119.00,57.57 Z
           M 88.00,104.87
           C 91.43,104.72 96.79,103.43 99.89,104.87
             106.17,107.39 104.17,115.92 102.85,121.00
             100.13,131.44 90.89,152.71 97.65,161.96
             103.74,170.29 117.31,169.15 126.00,166.33
             131.75,164.46 134.34,164.18 136.00,158.00
             136.00,158.00 128.00,158.87 128.00,158.87
             117.76,158.43 118.31,150.59 120.13,143.00
             120.13,143.00 127.91,113.00 127.91,113.00
             128.23,108.62 128.19,103.80 125.35,100.18
             118.92,92.00 106.60,93.90 98.00,96.67
             92.23,98.53 89.40,98.60 88.00,104.87 Z" />
</svg>
