<?xml version="1.0" encoding="UTF-8"?>
<svg width="35px" height="35px" viewBox="0 0 35 35" version="1.1" xmlns="http://www.w3.org/2000/svg" xmlns:xlink="http://www.w3.org/1999/xlink">
    <!-- Generator: Sketch 53.2 (72643) - https://sketchapp.com -->
    <title>Artboard</title>
    <desc>Created with Sketch.</desc>
    <g id="Artboard" stroke="none" stroke-width="1" fill="none" fill-rule="evenodd">
        <g id="Group-3" transform="translate(0.000000, 1.000000)" fill-rule="nonzero">
            <g id="Group-2">
               <g id="Group-4">
                    <path d="M22.257931,8.8 L23.8655476,8.8 C26.966324,8.8 29.48,11.313676 29.48,14.4144524 L29.48,14.7444665 C29.48,17.845243 26.966324,20.3589189 23.8655476,20.3589189 L22.257931,20.3589189 L22.257931,22.0487143 C22.257931,23.4798419 21.0977729,24.64 19.6666453,24.64 L7.43128571,24.64 C6.00015813,24.64 4.84,23.4798419 4.84,22.0487143 L4.84,10.0956429 C4.84,9.38007907 5.42007907,8.8 6.13564286,8.8 L22.257931,8.8 Z M22.257931,11.7967568 L22.257931,17.3621622 L23.7235042,17.3621622 C25.2603485,17.3621622 26.5062069,16.1163037 26.5062069,14.5794595 C26.5062069,13.0426152 25.2603485,11.7967568 23.7235042,11.7967568 L22.257931,11.7967568 Z" id="Rectangle-2" fill="#FFFFFF"></path>
                </g>
                <g id="Group" transform="translate(4.840000, 8.800000)" fill="#FF5E5B">
                    <path d="M8.36,5.27684576 C8.76029424,4.10561525 9.70894135,3.52 11.2059413,3.52 C13.4514413,3.52 14.2839059,6.3136503 13.106875,8.14 C12.3221877,9.35756646 10.7398961,10.8975665 8.36,12.76 C5.98010394,10.8975665 4.39781228,9.35756646 3.61312502,8.14 C2.43609412,6.3136503 3.26855871,3.52 5.51405867,3.52 C7.01105865,3.52 7.95970576,4.10561525 8.36,5.27684576 Z" id="Path-2" ></path>
                </g>
            </g>
        </g>
    </g>
</svg>