<?xml version="1.0" encoding="UTF-8" standalone="no"?>
<!DOCTYPE svg PUBLIC "-//W3C//DTD SVG 20010904//EN"
              "http://www.w3.org/TR/2001/REC-SVG-20010904/DTD/svg10.dtd">

<svg xmlns="http://www.w3.org/2000/svg"
     width="64.903mm" height="64.903mm"
     viewBox="0 0 184 184">
  <path id="Selection"
        fill="white" 
        d="M 81.00,5.21
           C 49.31,10.61 23.84,27.40 11.45,58.00
             -7.57,104.95 15.29,158.44 64.00,174.67
             71.02,177.01 79.59,178.91 87.00,179.00
             103.39,179.19 116.04,177.71 131.00,170.24
             141.65,164.92 151.90,157.35 159.33,148.00
             189.96,109.46 185.05,52.46 145.00,22.37
             137.18,16.50 130.28,12.79 121.00,9.67
             112.31,6.74 104.20,5.01 95.00,5.21
             95.00,5.21 81.00,5.21 81.00,5.21 Z
           M 50.00,79.43
           C 67.51,78.46 69.46,101.43 54.00,104.43
             46.10,105.96 38.01,97.84 39.43,90.00
             40.43,84.45 44.91,80.99 50.00,79.43 Z
           M 90.00,79.43
           C 107.51,78.46 109.46,101.43 94.00,104.43
             86.10,105.96 78.01,97.84 79.43,90.00
             80.43,84.45 84.91,80.99 90.00,79.43 Z
           M 130.00,79.43
           C 147.51,78.46 149.46,101.43 134.00,104.43
             126.10,105.96 118.01,97.84 119.43,90.00
             120.43,84.45 124.91,80.99 130.00,79.43 Z" />
</svg>
